Coordinates
version=1
nRows=10
nColumns=23
inDegrees=yes

Units are S.I. units (second, meters, Newtons, ...)
If the header above contains a line with 'inDegrees', this indicates whether rotational values are in degrees (yes) or radians (no).

endheader
time	pelvis_tilt	pelvis_list	pelvis_rotation	pelvis_tx	pelvis_ty	pelvis_tz	hip_flexion_r	hip_adduction_r	hip_rotation_r	knee_angle_r	knee_angle_r_beta	ankle_angle_r	subtalar_angle_r	mtp_angle_r	hip_flexion_l	hip_adduction_l	hip_rotation_l	knee_angle_l	knee_angle_l_beta	ankle_angle_l	subtalar_angle_l	mtp_angle_l
     15.00000000	     -2.10865321	     -3.61719276	      2.38646959	      2.12944761	      1.12581751	      1.04477002	     31.00025476	      3.33842898	     -9.32131969	     38.09521500	      0.66488693	     14.47642528	     -3.78420588	      0.00000000	    -18.89561553	     -3.74110507	     -6.67200587	     13.90185378	      0.24263312	     -5.02805733	      7.27501099	      0.00000000
     15.00666667	     -1.99658670	     -3.65236079	      2.17850267	      2.13155253	      1.12693027	      1.04539075	     30.15721735	      3.37222098	    -10.36854512	     34.80889025	      0.60752974	     15.19809973	     -0.60790008	      0.00000000	    -19.77592897	     -3.76116138	     -6.88061220	     13.88772526	      0.24238653	     -6.56231784	      6.65754037	      0.00000000
     15.01333333	     -2.04584323	     -3.73541049	      1.86613095	      2.13347674	      1.12737935	      1.04630872	     29.48173174	      3.70570126	    -10.85931440	     31.60268946	      0.55157098	     15.59867960	      1.60293970	      0.00000000	    -20.19846613	     -3.87606511	     -7.45421705	     14.46912099	      0.25253380	     -7.78439896	      6.06807196	      0.00000000
     15.02000000	     -1.66865047	     -3.79442479	      1.67460740	      2.13550201	      1.12782377	      1.04707369	     28.38924252	      3.88118609	    -11.79452517	     28.77345518	      0.50219153	     16.20293755	      4.43708001	      0.00000000	    -21.04253083	     -3.99444685	     -7.88752622	     15.10212415	      0.26358179	     -8.90029572	      5.42167008	      0.00000000
     15.02666667	     -1.52461595	     -3.89257485	      1.40800066	      2.13743352	      1.12756847	      1.04802164	     27.55388721	      4.27508931	    -12.18381109	     26.12161551	      0.45590820	     16.53282027	      6.19192088	      0.00000000	    -21.42200095	     -4.18383583	     -8.51045247	     16.20019088	      0.28274667	     -9.68727633	      4.67952147	      0.00000000
     15.03333333	     -1.45648170	     -3.97408141	      1.10401858	      2.13918741	      1.12665600	      1.04897901	     26.91076558	      4.67745905	    -12.34580280	     23.91310439	      0.41736241	     16.74929645	      7.41442726	      0.00000000	    -21.53323870	     -4.38789783	     -9.21504426	     17.68980023	      0.30874526	    -10.35544114	      3.71660840	      0.00000000
     15.04000000	     -1.41049002	     -4.08130913	      0.72214820	      2.14079118	      1.12520782	      1.05006078	     26.40395554	      5.11617313	    -12.38440389	     22.20139749	      0.38748748	     16.93880416	      8.26845480	      0.00000000	    -21.51186090	     -4.62626092	     -9.99006773	     19.42719966	      0.33906860	    -10.85679473	      2.55429653	      0.00000000
     15.04666667	     -1.12665008	     -4.43275884	      0.46583211	      2.14234347	      1.12368842	      1.05093390	     25.58807531	      5.78723218	    -12.37299691	     20.62539204	      0.35998100	     16.65565456	      8.28100959	      0.00000000	    -21.59950114	     -5.23912434	    -10.94283625	     21.48272916	      0.37494436	    -11.08835552	      1.80176341	      0.00000000
     15.05333333	     -1.04389922	     -4.64502635	      0.11376698	      2.14373075	      1.12136434	      1.05184373	     25.26772509	      6.19341804	    -12.55485295	     19.94267830	      0.34806540	     16.48268972	      8.40913098	      0.00000000	    -21.41256567	     -5.65130771	    -11.62061501	     23.66787812	      0.41308240	    -11.29070029	      0.36891111	      0.00000000
     15.06000000	     -0.88869843	     -5.04335227	     -0.13680857	      2.14499878	      1.11881822	      1.05261372	     24.87752125	      6.73568501	    -12.80487533	     19.53879504	      0.34101631	     15.89411537	      8.06303663	      0.00000000	    -21.17854462	     -6.32722919	    -12.21718103	     26.09509633	      0.45544535	    -11.33280608	     -0.94540238	      0.00000000
